<svg xmlns="http://www.w3.org/2000/svg" stroke-linejoin="round" stroke-miterlimit="2" clip-rule="evenodd" viewBox="0 0 512 512" fill="currentColor">
  <path d="M207 393c-10-5-18-9-36-9s-27 4-37 9c-11 5-24 11-49 11-24 0-37-6-49-11-10-5-18-9-36-9v51h209l17-35-19-7zm269 0c-12 5-25 11-49 11s-38-6-49-11c-10-5-19-9-37-9l-9 1-25 50h205v-51c-18 0-26 4-36 9z"/>
  <path d="M320 364c2-3 2-7 1-10l-29-81 55-84c2-3 5-4 8-3l44 17c6 3 13 1 17-4l43-50a23 23 0 00-8-36c-8-4-19-2-25 5l-33 37c-2 2-4 2-6 1l-143-54c-10-4-22-2-31 4l-55 39a21 21 0 00-2 32c8 9 21 11 31 4l48-33h7l9 4a5 5 0 012 7L139 313l-6 2-47 1c-13 0-22 10-23 22a22 22 0 0023 22l70-1c5 0 10-2 13-6l42-58c2-3 4-4 7-4h23c3 0 6 2 7 5l20 55v9l-51 102-217-1v30h512v-30l-242-1 50-96z"/>
  <circle cx="182.2" cy="56.6" r="35.8" transform="translate(111 7) scale(1.28365)"/>
</svg>