<svg xmlns="http://www.w3.org/2000/svg" xml:space="preserve" viewBox="0 0 532.027 504.136"><path d="M442.964 0v16.947c0 34.099-27.74 61.84-61.84 61.84h-59.88v32.235h42.052l-16.498 163.371a98.062 98.062 0 0 0-4.726-1.352L201.16 236.753l-.874-.226-.895-.126a110.81 110.81 0 0 0-35.712.761l-28.855-95.636h64.401v-32.235H62.519v32.235h38.636l31.992 106.029c-27.09 13.841-48.369 38.541-56.979 69.61-8.246 29.759-3.714 61.92 12.438 88.238l26.178 42.663h-.636c7.112 6.478 12.62 16.417 11.54 25.754-.297 2.565-.979 4.707-1.955 6.481h32.131c-1.448-10.679-2.139-21.461-2.313-32.235h-.946l-36.524-59.522c-11.488-18.722-14.713-41.6-8.848-62.769 10.539-38.031 47.762-62.653 86.807-57.571l139.996 36.053c32.349 8.331 52.595 40.524 46.091 73.29l-14.002 70.52h-.11c-.257 10.98-2.08 22.019-5.223 32.235h31.67c-.82-1.088-1.209-2.516-.78-4.132 2.433-9.171 3.806-19.193 7.486-28.104h-.179l12.755-64.243c7.149-36.015-7.094-71.555-34.192-93.117l18.263-180.83c44.921-7.074 79.388-46.054 79.388-92.93V0h-32.239z"/><path d="M230.86 312.656c-21.938 0-40.608 14.204-47.331 33.895h-29.606v32.235h29.606c6.724 19.689 25.394 33.894 47.331 33.894 27.577 0 50.012-22.436 50.012-50.012s-22.435-50.012-50.012-50.012zm0 67.788c-9.803 0-17.776-7.975-17.776-17.776s7.975-17.776 17.776-17.776 17.776 7.974 17.776 17.776-7.974 17.776-17.776 17.776zM502.967 459.395c-7.66 8.339-20.071 8.313-27.738-.018-20.272-22.036-55.613-22.036-75.885.018-7.411 8.05-20.32 8.031-27.748-.018-20.095-21.849-55.753-21.854-75.866-.009l-.298.326c-7.693 8.057-19.889 7.912-27.482-.317-20.354-22.127-54.149-23.634-76.531.712-6.988 7.571-19.473 7.6-26.478-.025-20.568-22.344-54.032-22.344-74.638.018-8.397 9.141-23.119 9.149-31.535-.01-6.646-7.22-17.422-7.211-24.066-.008-6.647 7.218-6.647 18.922-.009 26.142 10.643 11.56 24.79 17.93 39.844 17.93 15.062 0 29.211-6.371 39.836-17.922 7.312-7.94 19.199-7.94 26.525 0 19.758 21.496 54.135 22.235 75.236-.703 7.709-8.374 20.139-8.274 27.789.037 20.412 22.172 54.383 23.3 75.834 0l.289-.317c7.354-7.688 20.273-7.554 27.481.271 20.289 22.037 55.613 22.037 75.883.019 7.429-8.066 20.331-8.076 27.758-.009 20.943 22.75 54.939 22.821 75.891-.017 6.64-7.229 6.622-18.935-.031-26.135-6.663-7.219-17.431-7.201-24.061.035z"/><path d="M473.252 389.395c-7.66 8.339-20.07 8.313-27.738-.018-20.271-22.036-55.613-22.036-75.885.018-7.41 8.05-20.32 8.031-27.748-.018-20.094-21.849-55.752-21.854-75.865-.009l-.299.326c-7.693 8.057-19.888 7.912-27.482-.317-20.354-22.127-54.149-23.634-76.531.712-6.988 7.571-19.473 7.6-26.478-.025-20.568-22.344-54.032-22.344-74.638.018-8.397 9.141-23.119 9.149-31.535-.01-6.646-7.22-17.422-7.211-24.066-.008-6.647 7.218-6.647 18.922-.009 26.142 10.643 11.56 24.79 17.93 39.844 17.93 15.062 0 29.211-6.371 39.836-17.922 7.312-7.94 19.199-7.94 26.525 0 19.758 21.496 54.135 22.235 75.236-.703 7.709-8.374 20.139-8.274 27.789.037 20.412 22.172 54.383 23.3 75.834 0l.289-.317c7.354-7.688 20.273-7.554 27.48.271 20.289 22.037 55.613 22.037 75.883.019 7.43-8.066 20.332-8.076 27.758-.009 20.943 22.75 54.939 22.821 75.891-.017 6.641-7.229 6.623-18.935-.031-26.135-6.661-7.219-17.429-7.201-24.06.035z"/></svg>