<svg xmlns="http://www.w3.org/2000/svg" viewBox="0 0 523 523" fill="currentColor">
  <circle cx="146.7" cy="46.6" r="46.6"/>
  <path d="M503 159c-11-5-23-11-33-18-4-3-6-1-4 4l3 8h-37A151 151 0 00300 4c-8 0-15 6-16 13 0 8 5 15 13 16 4 0 99 10 106 121h-77c-4-12-15-20-27-20H199c-4-10-15-18-26-18h-51L58 84a29 29 0 10-26 52l60 29v114L35 487a29 29 0 0055 15l52-188h9l48 188a29 29 0 0055-14l-53-209v-88h98c12 0 22-7 26-18h78c-4 97-91 126-95 127a14 14 0 009 27c1 0 111-36 115-154l37-1-3 9c-2 5 0 6 5 3 9-7 21-13 32-18 5-2 5-5 0-7z"/>
</svg>