<svg xmlns="http://www.w3.org/2000/svg" viewBox="0 0 536 536" fill="currentColor">
  <circle cx="262.9" cy="144.8" r="34"/>
  <path d="M526 454H89a10 10 0 100 19h437a10 10 0 100-19zM536 195c0-5-4-9-10-9H330a14 14 0 00-20-2l-36 36-44-44c-3-3-8-5-13-5h-68c-4 0-8 2-11 5l-47 55a14 14 0 009 24c5 0 9-2 11-5l44-50h25L84 312l-65-1-5 1c-10 2-16 12-14 21s10 15 19 15l75-1c16 1 22-6 22-6l38-42 43 42-17 78-1 5a18 18 0 0036 4l21-96h290a10 10 0 100-19H235l-2-3-38-38 41-49 27 27s11 11 24-2l43-43h196c6 0 10-4 10-10zM526 63H89a10 10 0 100 19h437a10 10 0 100-19zM443 408c-3 8 1 15 14 15 12 0 23-6 26-16 3-7 0-12-5-14v-1c7-3 11-8 13-12 3-7 0-14-12-14-11 0-21 6-24 15-2 5-1 9 4 12l-1 1c-7 2-13 7-15 14zm22-28c1-4 5-7 11-7 5 0 6 4 5 8-2 4-6 7-10 8-5-1-8-4-6-9zm1 17c5 2 8 5 6 11-1 4-6 8-12 8s-8-4-6-9 6-9 12-10z"/>
  <path d="M452 289h11l42-49 2-7h-37l-4 9h27zM505 118h5l3-8h-5c-9 0-16 3-23 8-8 6-15 14-19 25-5 14-1 24 12 24 12 0 23-9 27-20s-1-18-10-18c-6 0-11 2-15 5 4-7 12-14 25-16zm-17 19c7 0 9 4 6 11-2 7-8 11-13 11-7 0-8-6-6-13l2-4c3-3 8-5 11-5z"/>
</svg>