<svg xmlns="http://www.w3.org/2000/svg" viewBox="0 0 568 568" fill="currentColor">
  <path d="M281 120a42 42 0 1084 0 42 42 0 00-84 0z"/>
  <path d="M375 341V190c0-19-20-19-20-19h-80s-3 0-10 6l-47 27-46-47-1-4a101 101 0 019-32c1-1 8-11 25-27 18-18 25-28 30-44 3-11 2-23-2-32-5-8-12-13-21-16s-18-2-27 2c-9 5-17 14-20 24-5 16-5 28-1 53 5 24 4 36 4 36s0 7-3 15l-7 16c-7-2-14-1-20 4-9 8-10 23-2 32l7 7-3 9c-2 5 0 10 5 12 5 1 10-2 11-7l42 41c4 5 10 8 17 8 5 0 9-2 13-4l41-23v111l-63 191c-5 16 5 33 22 38 17 4 34-6 38-22l55-165 56 165a31 31 0 1060-16l-62-188zM183 94l11 2c-11 11-16 19-18 21h-2l-2-28 11 5zM270 49c4 8 13 10 20 6 3-1 6-6 6-6l25-5 3-3 1-2-2-3h-2v-2-2l-2-3h-2v-2-2l-2-3h-1l-1-2 1-2-2-3h-2l-1-2 1-2-2-3h-2l-4 2-17 17-9 2c-7 4-10 13-6 20zm44-12a1 1 0 011 1l-1 1-18 6-2-1 1-2 19-5zm-6-10l2 1-1 2-16 9-2-1v-2l17-9zm-20 4l15-13h2l-1 2-14 13h-2v-2z"/>
</svg>