<svg xmlns="http://www.w3.org/2000/svg" viewBox="0 0 550 550" fill="currentColor">
  <path d="M281 108a41 41 0 1083 0 41 41 0 00-83 0zM208 511c-5 17 5 34 21 38 17 4 34-5 38-22l54-162 55 163c4 16 21 26 38 21 16-4 26-21 21-37l-61-186V178c0-20-19-19-19-19h-79s-4 0-10 5l-46 27-48-48c-8-9-22-11-31-3-10 8-10 22-2 31l61 62c4 4 10 7 16 7 5 0 9-1 13-4l40-22v109l-61 188z"/>
  <path d="M116 172c-2 2-2 6 0 8l12 12c2 3 5 3 8 0 2-2 3-6 0-8l-12-12c-2-3-5-3-8 0zM302 0c-4 0-7 1-9 3l-51 50-70 77 8 8 79-68 53-48c2-2 3-5 3-9 0-7-6-13-13-13z"/>
</svg>