<svg xmlns="http://www.w3.org/2000/svg" viewBox="0 0 529 529" fill="currentColor">
  <path d="M68 514l75-75c4-4 8-9 9-14l10-43 42 23v97a26 26 0 0053 0V389c0-9-6-18-14-23l-38-21-23-123 35-46c3-3 4-8 4-12v-48a20 20 0 00-40 0v41l-20 27-67 11-20-23 6-70c1-11-7-21-18-21-11-1-21 7-22 18l-6 78c0 5 1 11 5 15l49 57 24 114-10 41-68 69c-12 10-13 26-4 38 9 10 27 12 38 3z"/>
  <path d="M115 90c-23 8-34 33-27 55a43 43 0 0082-29c-8-22-33-34-55-26zM414 33c-34 0-91 7-91 34v77c0 42 34 76 76 77v43h18v-43h11c42 0 77-35 77-77V67c0-27-58-34-91-34zm0 19c42 0 68 9 72 15-3 5-30 15-72 15-43 0-69-10-73-15 4-6 30-15 73-15zm34 98h-28v-21h32l-4 21zm-41-34h-34c-3-9-7-15-10-21 14 3 30 4 44 5v16zm-30 13h30v21h-25l-5-21zm80-13h-37v-16c15-1 32-2 47-6l-10 22zm-29 87h-29c-32 0-58-27-58-59V88l2 1c8 11 28 43 27 88 0 3 3 7 7 7s7-3 7-7l-1-14h24v14a7 7 0 1013 0v-14h26v14c0 4 3 7 7 7s7-4 7-7c-1-44 18-76 27-88v55c0 32-27 59-59 59z"/>
  <circle cx="234.2" cy="33.5" r="33.5"/>
</svg>