<svg xmlns="http://www.w3.org/2000/svg" viewBox="0 0 543 543" fill="currentColor">
  <path d="M112 61s26 9 22 38l-46 27a68 68 0 10-28-34l52-31zM329 327c5 0 10-2 15-6 11-8 13-24 4-35L225 125a25 25 0 00-39-1l-45 32c-9 6-11 19-4 27l46 64-60 52a35 35 0 00-5 48l111 147a35 35 0 0050 7c15-12 18-34 7-50l-92-120 47-41 8-10 20-15 40 52c5 6 12 10 20 10z"/>
  <path d="M191 483c-6 0-10 4-10 10v20c0 17 21 30 50 30h68a10 10 0 000-20h-68c-19 0-30-8-30-10v-20c0-6-5-10-10-10zM314 203l2 3v1l3 6 20 24c2 3 6 6 10 6l3 1 9 2 18 10 7 4 2 9c0 3 2 8 5 11l50 48c5 5 13 5 19 0l21-20c2-2 4-5 4-8 0-4-2-7-6-9l-83-49 3-5v-4c0-3-2-6-4-7l-17-9-5-1-2-5c-3-3-6-5-9-5-4-1-7 0-10 2l-1 1-17-17L221 59c-3-4-6-5-8-3l-2 2h-6c-3 2-3 7 0 10l109 135zm62 18l1 1 17 9c2 0 2 2 2 4l-2 4-20-11 2-7zm-19-9c2-1 4-2 6-1a10 10 0 017 8l-1 2-1 3-4-4-7-7v-1z"/>
</svg>