<svg xmlns="http://www.w3.org/2000/svg" viewBox="0 0 432 432" fill="currentColor">
  <path d="M349 223a13 13 0 009-25l-20-7c5 9 5 19 1 29l10 3zM252 202l-20-24c-7-7-9-17-5-25l29-60-12 63c-1 6 1 11 5 15l48 47a17 17 0 1023-24l-41-41 10-53 2 35 13-10c11-9 13-24 5-35l-27-36c-9-11-24-13-35-5l-75 58c-5 5-8 12-9 19l-2-1c-7-4-15-2-19 4-4 7-2 15 5 19l24 15 37 49-63 56a20 20 0 0027 30l77-69c8-7 9-19 3-27z"/>
  <circle cx="342.4" cy="41.6" r="37.2"/>
  <path d="M431 413l-31-56a10 10 0 00-15-2l-15 15-24 2c7-32-8-66-40-81l13-52c-12 3-25 0-34-9l-13-12c-1 7-4 14-9 20l25 11v2l-46 7-37 32 76-11-1 6a71 71 0 10-3 142l145 1c4 0 7-2 9-5s2-7 0-10zm-178-19a44 44 0 0120-82l-9 41a13 13 0 0026 6l10-41a44 44 0 11-47 76zM138 204l22-13-8 49 34-31-24-32-10-13-28 17a72 72 0 00-113 11 71 71 0 00111 87c2-16 12-23 17-28 5-15 5-31-1-47zm-24 15c2 7 2 14 0 21l-17-11 17-10zm-66 48a44 44 0 1152-71l-36 22a13 13 0 000 23l36 22a44 44 0 01-52 4z"/>
</svg>