<svg xmlns="http://www.w3.org/2000/svg" viewBox="0 0 515 515" fill="currentColor">
  <path d="M511 383c0-12-10-21-22-21h-41c-2-27-7-64-23-97-38 32-112 87-172 87h-2c-62-1-141-55-178-85-17 36-22 72-24 95H26a22 22 0 100 43h37c6 10 15 25 32 39H69a13 13 0 00-13 14l3 45a13 13 0 1026-2l-2-31h55c28 13 67 21 118 20 43-2 76-9 102-20h60l-2 31a13 13 0 1026 2l3-45a13 13 0 00-13-14h-31c16-13 27-27 35-39h53c12 0 22-10 22-22z"/>
  <path d="M70 169c7 21 22 37 41 46-10 9-18 19-25 30 34 26 109 80 165 82h2c53 0 124-55 158-85l-15-18a83 83 0 10-46-150l3 21-1 5a269 269 0 01112 41 66 66 0 01-13 40 426 426 0 01-111-37c-5 10-12 19-20 26l6 12-38-8a91 91 0 10-74-2l-24 4-19-17a477 477 0 01-77 22 66 66 0 01-13-40 211 211 0 0167-31 103 103 0 013-51 82 82 0 00-81 110zm113-56a73 73 0 011-47c14-4 36-8 68-8 33 0 55 3 69 8a73 73 0 012 45 467 467 0 01-140 2z"/>
</svg>