<svg xmlns="http://www.w3.org/2000/svg" viewBox="0 0 535 535" fill="currentColor">
  <path d="M71 394h132l-67 68a9 9 0 0012 12l79-80h221c13 0 31-6 41-14 8-7 19-16 26-24 10-10 22-24-4-23H287l47-48 22-22 28 9c11 3 23-1 27-10 5-8 1-18-9-22l-17-6 54-55c13 7 29 5 39-5l47-47c13-13 13-34 0-47a33 33 0 00-47 0l-47 47a33 33 0 00-5 39l-58 59-114-42-27-11c-15-5-30 1-35 14l-7 25-35 118-1 4H14c-12 0-18 9-11 20l23 21c13 11 32 20 45 20zm202-145c1-6 8-10 14-8l51 15-33 34-43 43h-15l26-84z"/>
  <circle cx="249" cy="109.8" r="52.3"/>
</svg>