<svg xmlns="http://www.w3.org/2000/svg" viewBox="0 0 552 552" fill="currentColor">
  <circle cx="193" cy="140.5" r="42.6"/>
  <path d="M368 169c4 1 11 4 20 3l11-18 8-4c5 1 11-1 14-6l75-113c4-6 2-14-4-19L476 2c-6-4-14-2-18 4l-75 113c-3 5-2 12 2 17l-1 8-16 25zM361 178l-1 3-9 3-40 26-54-17-6-1h-73c-16 0-29 13-29 29v125l-5 99-78 55a29 29 0 0033 47l90-63c7-5 12-14 12-22l4-81 59 51v91a29 29 0 1058 0V419c0-8-4-16-10-22l-75-64v-48l27-2 9-3 44-28 16 5a19 19 0 0021-30l18-11c9-6 12-18 6-27l-2-2h2l1-1-6-2c-2-2-5-3-8-3l-4-3zm-104 67l-20 1v-16h11l21 7-12 8zM364 174c3 2 10 6 18 7l2-4c-8 0-16-2-19-4l-1 1z"/>
</svg>