<svg xmlns="http://www.w3.org/2000/svg" viewBox="0 0 523 523" fill="currentColor">
  <path d="M493 395c-4-4-22-5-28-5l-2-2-2-10-2-2-21-7-4-1c-1 0-4 1-5 5-2 5 2 7 4 7a538 538 0 0119 3v5l-2 2c-6 0-24 1-28 5h-1c-2 0-28 4-29 25 0 24 12 39 36 41l25 1h6l28-1c24-2 36-17 36-41-1-21-28-25-29-25h-1z"/>
  <circle cx="430.6" cy="116.9" r="56.5"/>
  <path d="M29 408l9-2 84-30c4-1 8-4 11-7l48-52 3 1 70 20-18 83a29 29 0 1057 12l23-110c3-15-6-30-20-34l-31-8 95-59 20 83c2 6 6 11 11 14l83 53a24 24 0 0033-8c7-11 4-25-7-33l-76-47-20-83c-1-5-4-9-8-12l-41-55c-3-7-9-13-18-14L235 98h-10l-90 16a24 24 0 109 48l85-16 68 14-106 68c-5 1-9 4-12 7l-83 90-77 27a29 29 0 0010 56z"/>
</svg>