<svg xmlns="http://www.w3.org/2000/svg" viewBox="-751 752 497 497" fill="currentColor">
  <path d="M-609 1170a69 69 0 01-112-56 70 70 0 01134-26l22-23a99 99 0 00-186 49 100 100 0 00167 74c-7-2-14-6-19-11l-6-7z"/>
  <path d="M-458 1016l-53-31 39-24-1 7c-1 13 8 25 20 27l96 16a25 25 0 004-50l-68-11 3-32c3-21 5-28-3-40l-10-16a43 43 0 00-59-13l-106 67c-26 16-39 50-18 76 8 10 90 60 90 60l-66 68a30 30 0 1043 42l96-100c13-14 10-37-7-46zM-346 879c24-14 31-45 16-68-15-24-113-34-136-20-23 15 37 49 51 73 15 23 46 30 69 15z"/>
  <path d="M-354 1015c-56 0-100 46-100 99a100 100 0 10100-99zm0 169a70 70 0 110-140 70 70 0 010 140z"/>
</svg>