<svg xmlns="http://www.w3.org/2000/svg" viewBox="0 0 555 555" fill="currentColor">
  <path d="M14 511c3 0 6-2 8-4l49-41c3-2 10-3 13 0l51 33c13 8 32 7 45-2l41-31c3-2 10-3 14 0l53 33c12 8 32 8 44 0l51-33c4-3 12-3 15 0l50 32c13 9 32 9 45-1l56-42a13 13 0 00-16-21l-56 42c-4 2-11 2-14 0l-50-33c-13-8-32-8-45 0l-50 33c-4 2-12 3-16 0l-53-33c-13-8-32-8-45 2l-41 30c-3 3-10 3-14 1l-50-33c-14-9-33-7-45 3L5 487a13 13 0 009 24zM188 298a36 36 0 000-72 36 36 0 100 72zM434 57l-73 124-107 64c-5 3-9 8-13 13l-83 144a20 20 0 0035 20l65-96 120-83c5-3 10-8 12-13l88-148c6-12 2-28-10-35-12-6-27-2-34 10z"/>
</svg>