<svg xmlns="http://www.w3.org/2000/svg" fill-rule="evenodd" stroke-linejoin="round" stroke-miterlimit="2" clip-rule="evenodd" viewBox="0 0 90 90" fill="currentColor">
  <circle cx="28.4" cy="20.2" r="7.7"/>
  <path fill-rule="nonzero" d="M6 75l1-2 1-1c0 2 6 3 13 3 6 0 11-1 11-3l4 1 2-6-4-2-4 1c0 1-4 2-9 2s-9-1-9-2H9V54l7-20c0-2 2-4 5-4 4 0 7 1 7 3l7 8 9 2 2-9-7 1-5-5 14-2c2 0 3 1 3 2l-2 4-3 9 2 4c0 2-2 3-4 3l-5 24 3 1c8 0 14-1 14-3 0 2 5 3 12 3 6 0 12-1 12-3l2 2v3c0 2-6 4-14 4-7 0-12-2-12-3 0 1-4 3-8 3-9 0-15-2-15-3 0 1-5 3-11 3-9 0-16-3-16-6zm35-18l1-8-8-2-6-4-5 14h18zM47 68c0-1 5-2 11-2"/>
  <path fill-rule="nonzero" d="M47 68l3-11h12c2 0 3-2 3-3V37h-4v-2c2 0 4-2 4-5-4 0-8-2-8-4 4 0 8-2 8-3-4 0-7-4-7-8 0 2 3 3 7 3h10c2 0 3 1 3 3h5c0-2 1-3 3-3s3 2 3 4c0 3-1 5-3 5v3c2 0 3 2 3 4v3c0-2-4-4-9-4l-3 1c0 4-1 7-3 7 1 0 3 9 3 20 0 4-4 7-8 7-6 1-11-1-11-2"/>
</svg>