<svg xmlns="http://www.w3.org/2000/svg" viewBox="0 0 512 512" fill="currentColor">
  <path d="M167 0c-7 0-13 1-17 3a7 7 0 00-11 0c-5-2-11-3-18-3-12 0-22 4-22 10s10 9 22 9l16-2v30H55V17l15 2c13 0 23-4 23-9S83 0 70 0c-7 0-13 1-17 3a7 7 0 00-12 0c-4-2-10-3-17-3C12 0 2 4 2 10s10 9 22 9l16-2v34a10 10 0 007 16l-20 56a7 7 0 0014 5l22-61h4v31c0 5 4 8 8 8h41c5 0 8-3 8-8V67h5l22 61a7 7 0 0014-5l-20-56a10 10 0 007-16V17l15 2c13 0 23-4 23-9S180 0 167 0zM96 92a11 11 0 110-22 11 11 0 010 22z"/>
  <circle cx="412.5" cy="80.7" r="41.7"/>
  <path d="M278 157c-3-2-6-1-8 1l-20 27c-2 2-1 6 2 8l17 13a35 35 0 0137-29l-28-20zM509 480l-41-98-3-72V166c0-16-12-28-28-28h-50c-15 0-28 12-28 28v27l18 5 24-30-23 47-69-21a19 19 0 10-11 36l85 26c9 2 18-2 22-10l30-62-15 69c-4 15-20 25-35 20l-26-8v45l-22 59-1 5-15 112a23 23 0 1046 6l15-109 26-73h11l3 78 2 8 42 102a23 23 0 0043-18zM299 138a39 39 0 00-56 0 7 7 0 1011 11 24 24 0 0135 0 7 7 0 0010 0c3-3 3-8 0-11z"/>
  <path d="M315 119a61 61 0 00-87 0 7 7 0 1011 11c18-19 47-19 65 0a7 7 0 0011 0c3-3 3-8 0-11zM124 130c-3-3-8-3-11 0a25 25 0 01-35 0 7 7 0 10-10 11 39 39 0 0056 0c3-3 3-8 0-11z"/>
  <path d="M139 150c-3-3-8-3-10 0a46 46 0 01-66 0 7 7 0 10-10 10 61 61 0 0086 0c3-3 3-8 0-10z"/>
</svg>