<svg xmlns="http://www.w3.org/2000/svg" viewBox="-751 752 497 497" fill="currentColor">
  <path d="M-486 1190a43 43 0 01-69-33 43 43 0 0183-17l13-14a61 61 0 00-114 31 61 61 0 00102 45 30 30 0 01-15-12z"/>
  <path d="M-393 1096l-33-19 24-15-1 5c0 8 5 15 13 17l59 9c7 0 14-5 15-13s-5-16-13-17l-42-7 2-20c2-13 3-17-1-24l-6-10c-8-12-24-16-37-8l-65 41c-16 10-24 31-11 47 5 6 55 36 55 36l-40 42c-7 7-7 19 0 26 4 3 8 5 13 5s10-2 13-5l59-61c8-9 6-23-4-29zM-324 1012a31 31 0 10-33-52 31 31 0 0033 52z"/>
  <path d="M-329 1095c-35 0-62 29-62 62a61 61 0 1062-62zm0 104a43 43 0 110-85 43 43 0 010 85z"/>
  <g>
    <circle cx="-581.8" cy="803" r="28.9"/>
    <path d="M-507 825c-6-5-14-3-19 2l-26 35-25-8 13 1c-2-6-7-11-14-12l-41-5c-4-1-9 0-13 3l-45 26c-5 3-7 7-7 12l4 60a13 13 0 1027-2l-4-51 17-10-11 70-2 47-57 9c-8 2-14 10-13 19 2 8 10 14 19 12l69-12c7-1 12-7 13-14l3-48 18 3 18 38 8 73a16 16 0 1031-3l-8-76-1-5-21-45 7-55-18-10 34 11c6 2 12 0 15-4l32-43c4-6 3-14-3-18z"/>
  </g>
</svg>