<svg xmlns="http://www.w3.org/2000/svg" viewBox="0 0 494 494" fill="currentColor">
  <path d="M11 433l98 26a14 14 0 0018-10c2-7-3-15-10-17l-86-23c5-15 24-46 95-75l19-8 24 11c5 2 8 8 6 13l-20 67c-5 15 3 31 17 35s29-5 34-20l28-97c2-5 0-12-4-16l-28-24c19-13 33-26 45-41l35 15 7 1a19 19 0 007-37l-29-12c9-19 16-40 22-63 11-41 40-58 63-65l7-5 22-25v-1l1 2 10 29c0 3 2 6 5 8 12 10 24 23 35 41l3 4a1679 1679 0 0030 24c-1 1-5 2-11 2l-2-1c-12 0-23-1-30 1l-15 7c-14 7-21 9-26 4a14 14 0 00-23 15c0 2 12 38 32 63a14 14 0 1022-19c-7-8-13-19-17-28 9-2 18-6 25-10l10-4h23c20 2 37-8 40-23 4-13-3-28-20-39l-18-14c-12-17-24-32-37-43l-9-26c-4-12-12-20-22-22s-20 2-28 11l-20 23c-24 8-64 30-78 83-6 23-12 43-21 61l-16-7-6-49c-1-5-4-10-8-13l-5-3h-56c-5-1-10 4-11 9l-21 156v3h-1C-4 356-1 415 0 421s5 11 11 12zm190-197l18 7c-6 7-14 14-22 20l4-27z"/>
  <path d="M137 67a44 44 0 1086 0h5c5 0 9-4 7-9-1-4-4-7-7-11-7-7-11-41-48-41-26 0-43 38-47 52-2 4 1 8 4 9zM479 479c2-6 1-12-4-16l-52-48V315a14 14 0 10-29 0v99l-58 49a14 14 0 009 25h121c6 0 11-4 13-9zm-94-20l22-18h2l20 18h-44z"/>
</svg>