<svg xmlns="http://www.w3.org/2000/svg" viewBox="0 0 511 511" fill="currentColor">
  <circle cx="278.6" cy="45.5" r="41.7" transform="rotate(-3 281 46)"/>
  <path d="M158 8l1-4a20 20 0 00-22 0l1 4zM303 317v-39c0-15 14-27 29-25V145c6 0 10 5 10 12v100c5 3 9 9 11 16h20c1-6 4-11 9-15V157c0-31-25-56-57-56H168V74c-5-4-9-9-10-16h-20c-1 7-5 12-10 16v47c0 11 9 20 20 20h77v346a24 24 0 0048 0V293h11v194a24 24 0 1048 0V342c-15 2-29-9-29-25z"/>
  <path d="M397 265c-7 0-13 6-13 13v7h-43v-7a13 13 0 00-25 0v39a13 13 0 0025 0v-7h43v7a13 13 0 0026 0v-39c0-7-6-13-13-13zM169 53a13 13 0 0026 0V14a13 13 0 00-26 0v7h-43v-7a13 13 0 00-25 0v39a13 13 0 0025 0v-7h43z"/>
</svg>