<svg xmlns="http://www.w3.org/2000/svg" viewBox="0 0 488 488" fill="currentColor">
  <path d="M485 407l-39-86 17-73c0-6-2-12-7-16l-77-80a37 37 0 010 40l11 48c3 14-4 28-18 33l-46 16c-8 4-13 12-13 20l-5 107a25 25 0 1050 2l4-92 36-19-2 11c-2 5-1 11 1 16l43 94a25 25 0 1045-21z"/>
  <path d="M332 213v12l-77 27a21 21 0 1013 39l91-31c9-3 14-11 14-20l1-42c-5 5-11 9-19 10l-23 5zM212 117c17 10 38 5 50-10a38 38 0 0064 20 38 38 0 10-57-50 38 38 0 00-71-12c-10 18-4 42 14 52z"/>
  <path d="M260 312l-67-41 24-42 10 15 5 5c4-6 10-11 18-13l37-13h-2c-3 1-7 1-11-1l-42-19-33-15 79 18h9l65-14a21 21 0 10-9-40l-60 13-75-17h24l-5-3-12-7a33 33 0 00-45 12L70 333 7 400a25 25 0 1036 34l66-70 5-6 29-60 79 49 1 71c1 13 12 24 25 24h1c13 0 24-11 24-25l-1-84c0-9-5-16-12-21z"/>
</svg>