<svg xmlns="http://www.w3.org/2000/svg" viewBox="0 0 512 512" fill="currentColor">
  <path d="M106 115a58 58 0 100-115 58 58 0 000 115z"/>
  <path d="M493 493h-26l1-1c10-12 9-30-3-40L346 348l-14-44v-89c0-16-10-37-22-47l-91-92c-10-9-25-8-34 1l-77 82c-4 4-6 11-6 17l4 115c0 9 6 17 14 21L59 437H40c-11 0-23 7-28 15-5 9 0 16 10 16h32c11 0 19-7 19-16l65-135c7 0 13-3 18-8l64-66 1-2 25 24-81 74a29 29 0 00-1 42l119 112h-7-1s-9 1-12-8a10 10 0 10-18 7 31 31 0 0032 20h72a10 10 0 100-19h-14c7-11 5-26-5-35l-104-97 50-45 18 57c1 5 4 10 8 13l123 107h-6c-1 0-10 1-13-8a10 10 0 10-18 7 31 31 0 0032 20h73a10 10 0 100-19zM179 217l-27 27-2-60 29-31v64zM64 488H19a10 10 0 100 19h45a10 10 0 100-19z"/>
</svg>