<svg xmlns="http://www.w3.org/2000/svg" viewBox="0 0 528 528" fill="currentColor">
  <path d="M128 0a57 57 0 100 115 57 57 0 000-115zM33 452c-4 9 0 16 11 16h32c10 0 19-7 19-16l65-135c6 0 13-3 17-8l64-66 2-2 25 24-81 74a29 29 0 00-1 42l126 119a29 29 0 0041-2c11-11 10-29-1-40l-104-97 49-45 18 57c2 5 5 10 9 13l125 109a29 29 0 0038-43L368 348l-14-44v-89c0-16-10-37-22-47l-92-89c-4-4-10-6-16-6-13 0-24 11-24 24v120l-57 59c-9 9-9 24 0 33L81 437H61c-10 0-23 7-28 15z"/>
  <circle cx="70.5" cy="507.4" r="20.7"/>
</svg>