<svg xmlns="http://www.w3.org/2000/svg" viewBox="0 0 561 561" fill="currentColor">
  <path d="M504 369l10-87c1-5 0-10-2-14l-2-3-5-5-113-110c-3-3-9-3-13 1l-12 14-4 3-60 59-18-3a24 24 0 00-29-29l-40 9-5-6 6-6c3-4 3-10-1-14l-50-48c-3-4-9-3-12 1L55 255c-7 5-11 13-9 22l15 100-56 69a24 24 0 0038 30l61-77c5-5 6-12 5-19l-7-51 1-1 6-7 36 50 14 94a24 24 0 0047-7l-14-99-4-11-47-65 39-47 8 10a24 24 0 0024 8l21-5c2 9 10 16 19 18l55 9a24 24 0 0021-7l32-32 62 70-45 56c-4 4-6 9-6 15v89a24 24 0 1048 0v-81l41-50-5 37c0 6 2 13 6 18l58 73a24 24 0 1037-30l-52-65z"/>
  <path d="M311 193a45 45 0 10-36-72v-6a45 45 0 10-9 26v7c0 25 20 45 45 45z"/>
</svg>