<svg xmlns="http://www.w3.org/2000/svg" viewBox="0 0 303 303" fill="currentColor">
  <path d="M25 264c8-7 21-25 26-34 2-2 3-7 4-10l1-13 60-71v27l20-14c10-5 23-5 31 0l21 14v-26l59 70 2 13c0 3 1 8 3 10 6 9 18 27 27 34 2 2 7 2 10 1 4-2 11-5 14-13 1-3 0-7-2-9l-25-29c-2-3-6-5-9-6l-13-5-66-79v-7c0-13-10-23-23-23h-26c-13 0-23 10-23 23v6l-67 80-13 5c-2 1-6 3-8 6L2 243c-2 2-3 6-2 9 4 8 10 11 15 13 2 1 7 1 10-1z"/>
  <path d="M162 157c-5-3-15-3-20 0l-71 48c-6 3-10 11-8 18 7 20 29 56 89 57 60 0 82-36 89-57 2-7-2-15-7-18l-72-48z"/>
  <circle cx="152" cy="56.3" r="32.6"/>
</svg>