<svg xmlns="http://www.w3.org/2000/svg" viewBox="0 0 553 553" fill="currentColor">
  <path d="M404 246l-1-3c2-6 1-13-4-18-4-5-68-51-199-27-9 2-15 8-16 16-59-1-138-1-167 7a24 24 0 0013 46c16-4 59-6 107-5v34c-48 1-91 1-107-4a24 24 0 10-13 46c29 8 108 7 168 5 2 6 8 11 15 12 131 24 195-21 199-27 5-5 6-11 5-18v-64zm-248 16h23v33l-23 1v-34zM513 276c0-17-2-29-3-35l-52-10c-3-1-6-2-7-5a59 59 0 000 101c1-3 4-5 6-5l51-11c2-6 5-18 5-35z"/>
  <path d="M524 218l-17-9c-17-8-34 1-44 7-4 3-3 7 2 8l39 7c5 1 11 6 12 11a160 160 0 01-1 69c-2 5-8 9-13 10l-37 9c-5 1-6 4-1 7 21 14 36 10 44 6l15-11c12-6 31-22 30-55 0-36-18-52-29-59z"/>
</svg>