<svg xmlns="http://www.w3.org/2000/svg" viewBox="0 0 491 491" fill="currentColor">
  <circle cx="205.3" cy="46.4" r="46.4"/>
  <path d="M263 143l50-28 84 30a24 24 0 0031-14c4-13-2-27-15-31l-95-33c-6-3-13-2-20 1l-59 34-4 3H38a24 24 0 00-14 43l-12 5c-5 3-5 9-1 12 7 7 20 6 37 6 16-1 29 0 37-6 4-3 3-9-1-12h82v105h1l6 64-60 110a29 29 0 1050 27l65-117c3-6 4-11 3-17l-3-30 25 51-65 101a29 29 0 1048 31l74-114c6-8 7-19 2-28l-55-112v-78l6-3z"/>
  <path d="M45 252c1 2 20 51 95 51a10 10 0 000-19c-61 0-76-37-77-39a10 10 0 00-18 7z"/>
  <path d="M112 268h3a10 10 0 004-18 81 81 0 01-50-54c-1-5-6-9-11-8s-9 6-8 11c1 2 10 47 62 69zM328 253h93a10 10 0 100-19h-93a10 10 0 100 19zM352 286h121a10 10 0 100-19H352a10 10 0 100 19z"/>
</svg>