<svg xmlns="http://www.w3.org/2000/svg" viewBox="0 0 450 450" fill="currentColor">
  <path d="M25 450c11 2 22-4 26-13l44-93a24 24 0 002-10v-70l66 29 11 68c2 11 10 19 21 20a26 26 0 0029-28l-13-83c-2-8-7-15-14-19l-60-26 38-66 19 24 7 5 72 21c9 2 19-3 22-12 5-10 0-22-11-26l-1-1-62-18-34-41c-7-9-20-19-30-23l-15-8-12-2c-9 0-57-1-77 38-24 44-9 96-9 96v2l2 114-39 84-3 9c-2 14 7 27 21 29z"/>
  <path d="M294 338l-22 12c-10 3-19 13-20 23-2 9-11 19-21 21l-86 21c-10 3-18 10-18 15 0 6 9 11 20 11h280c11 0 20-9 20-19l-1-385c0-11-8-21-18-24l-4-1c-10-2-21 4-23 15l-15 69c-2 10-12 22-22 26l-4 1c-10 5-21 16-24 26l-22 62c-4 10-3 26 1 35l-1 40c4 10 5 24 3 32-3 8-13 17-23 20zM171 77a38 38 0 10-1-77 38 38 0 001 77z"/>
</svg>