<svg xmlns="http://www.w3.org/2000/svg" viewBox="0 0 503 503" fill="currentColor">
  <path d="M150 68a31 31 0 10-26-57 31 31 0 0026 57zM88 89l-33 88a26 26 0 0023 34l76 6 30 64c4 9 14 13 23 9 10-4 14-15 9-24l-36-80s-4-14-21-14l-44-3 21-55 31 21c6 4 11 4 16 2l55-25c17-8 7-30-11-23l-47 22-54-35s-11-8-24-2c0 0-11 3-14 15z"/>
  <path d="M424 182l-3 16c-2 12-13 25-25 28l-4 2a85 85 0 10-65 68l-1 1c-6 11-20 19-33 19l-18-1c-12 0-30 5-40 12l-23 16c-10 7-28 13-40 12h-12A85 85 0 0050 236a85 85 0 0052 161l-2 2c-6 11-22 19-34 18l-33-1c-12-1-24 9-26 21l-3 15 1 9-1 5v10c0 10 9 19 19 19h461c11 0 19-9 19-19V308l-2-7c2-4 2-8 2-12l-5-40c-1-13-9-29-18-38l-36-35c-9-9-18-6-20 6z"/>
</svg>