<svg xmlns="http://www.w3.org/2000/svg" viewBox="-851 853 296 296" fill="currentColor">
  <path d="M-600 1123h-28l1-1c4-13 2-27-5-39-4-7-9-12-16-17l9-36a16 16 0 00-17-19c-18-1-36 6-50 18l-35-22c-3-2-7-1-9 2s-1 7 2 9l34 21a11 11 0 009 15c4 0 7-1 9-4 6-8 14-13 24-16l-8 31v9c-9 12-20 23-33 33l-10 7c-3 2-4 6-4 9h-37c-4 0-6 3-6 6v1c0 3 2 6 6 6h192c6 0 11-5 11-12v-1h-39zm-61-39h1c4 2 7 6 10 10 4 6 4 14 2 21l-1 5-1 3h-49c15-11 27-24 38-39zm9-95a20 20 0 1139 0 20 20 0 01-39 0zM-655 887a19 19 0 11-37 0 19 19 0 0137 0zm-18 48l-107 60 16-26c3 0 6-2 9-5a134 134 0 0151-41c7-3 10-12 7-19s-12-10-19-7l-8 4-62 11c-6 1-9 6-8 11 0 5 5 8 9 8h2l21-3-16 18c-3 4-4 8-3 12-17 24-25 44-25 45v6l-31 17c-2 1-3 4-2 7l1 1c2 3 5 4 7 2l38-21 3-1 113-64c5-2 7-9 4-14v-1z"/>
</svg>