<svg xmlns="http://www.w3.org/2000/svg" viewBox="0 0 471 471" fill="currentColor">
  <path d="M93 84c29-24 18-73-19-83-32-8-62 20-57 53 5 36 48 52 76 30z"/>
  <path d="M123 112c-5-12-20-17-31-12l-46 19c-8 3-13 10-13 19v-1s-19 54 0 90c13 25 42 37 58 43l7 14v1l1 1c4 8 12 13 21 14-6 30-4 73 38 109a6 6 0 008-1c2-2 2-6-1-8-39-33-39-74-34-101h2l114-37 129 81c3 3 7 4 10 4l30 83c4 12 14 29 23 37s16 4 16-9V63c0-14-11-26-26-26H165c-3-4-8-7-14-7h-14a17 17 0 00-17 23l30 81-14 2-13-24zm154-12c12 3 24 16 25 28 2 13 13 26 26 30l58 17c13 4 25 16 29 26 3 11 2 29-3 41l-20 43-126-79c-7-5-16-6-24-3l-51 16c20-21 57-66 59-126l27 7zm-101 66a17 17 0 0014-23l-25-70 73 18c-1 64-45 111-61 126l-25-48 24-3z"/>
</svg>