<svg xmlns="http://www.w3.org/2000/svg" viewBox="0 0 585 585" fill="currentColor">
  <path d="M423 161c3 1 5-1 6-3 1-4 28-91 1-134-8-13-19-21-34-23-26-4-47 6-57 29l-4 11c-28-11-73-17-120-13-57 4-97 40-116 73-14 25-18 50-10 67 10 22 29 33 45 33l9-1c14-4 21-18 19-37l-1-11 8 39c1 4 3 8 6 11l35 39-8 50c-1 6 0 13 2 18l20 49-2 10v184a33 33 0 1067 0V393l60 17 9 1h109a33 33 0 100-67H363l-16-4-1-1-46-29c-5-3-7-10-6-15l5-23 18-12 108-31a24 24 0 00-13-46l-111 32c-3 0-5 1-7 3l-10 7-34-10-1-1-34-39-10-50a24 24 0 00-48 5c-5 9-6 20-5 34 2 14-2 24-12 27-13 4-33-5-43-27-6-14-2-36 10-59 18-30 56-64 109-68 48-4 91 3 117 13-1 14 2 27 9 32 2 2 9 6 18 0 9-7 8-15 6-19-2-6-10-13-22-18l4-11c4-11 17-28 46-24 13 2 22 8 28 19 24 39-2 125-2 126-1 3 0 5 3 6zm-66-94c1 1 2 3-3 7-4 3-6 2-6 1-4-3-6-11-5-21 8 4 13 9 14 13z"/>
  <circle cx="289.3" cy="145.4" r="57.9"/>
</svg>