<svg xmlns="http://www.w3.org/2000/svg" viewBox="0 0 512 512" fill="currentColor">
  <circle cx="195" cy="45" r="45"/>
  <path d="M483 260c-18-23-44-40-72-47a15 15 0 00-19 15v25c0 8-7 15-15 15h-23l-21 61a117 117 0 0187 24c6 4 12 6 18 6s12-2 17-6l23-14a45 45 0 0134-2c-2-28-12-55-29-77zM112 436a57 57 0 01-72 0l-19-11a15 15 0 00-12 27l13 8a86 86 0 00108 0c10-7 21-12 32-12l11-30c-22-2-43 4-61 18z"/>
  <path d="M112 376a57 57 0 01-72 0l-19-11a15 15 0 00-12 27l13 8a86 86 0 00108 0c16-12 35-15 53-10a92506 92506 0 007-20l4-8c-28-9-58-4-82 14zM511 373c-4-7-13-11-20-7l-17 10a57 57 0 01-72 0 88 88 0 00-76-16c4 9 8 19 9 29 16-4 34 0 49 11a86 86 0 00108 0l11-7c8-4 11-13 8-20z"/>
  <path d="M511 433c-4-7-13-11-20-7l-17 10a57 57 0 01-72 0 88 88 0 00-70-17l-2 3-10 29v1l-1 3c20-12 45-10 65 5a86 86 0 00108 0l11-7c8-4 11-13 8-20zM135 268c-8 0-15-7-15-15v-26l-2-8c-4-5-11-8-17-6A136 136 0 000 337a45 45 0 0134 1c8 4 17 9 24 15 6 4 12 6 18 6s12-2 17-6a118 118 0 01121-15c7-6 15-10 24-13l21-57H135z"/>
  <path d="M372 91c-8-3-17 1-20 9l-18 50h-94l-43-25c-21-14-47 1-47 25v88h90v-28h72l-53 143c-19 0-36 11-43 30l-32 88a15 15 0 009 20l57 20a15 15 0 0019-9l21-59 12-31 3-18c-1-13-9-23-18-31l56-153h2c17 0 30-13 30-30 0-9-4-18-11-23l17-47c3-8-1-17-9-19z"/>
</svg>