<svg xmlns="http://www.w3.org/2000/svg" viewBox="0 0 473 473" fill="currentColor">
  <path d="M292 263l76-126c5-9 3-22-6-28l-34-26-22-17-9-2H195c-8 0-15 4-18 10l-51 96a20 20 0 1036 19l45-85h70l-72 103v1l-59 93H30a26 26 0 000 52h130c9 0 18-4 22-12l49-78 50 80-50 92a26 26 0 0046 24l56-105c5-8 5-18 0-26l-41-65z"/>
  <circle cx="377.5" cy="47.7" r="47.7"/>
  <path d="M443 193c7-14 10-29 11-41 1-9-7-17-16-17-20 1-51 7-66 30-13 19-17 38-18 51-1 10 8 18 17 17 13 0 30-3 44-10l18 20a20 20 0 0029 2c8-8 9-20 2-29l-21-23z"/>
</svg>