<svg xmlns="http://www.w3.org/2000/svg" viewBox="0 0 525 525" fill="currentColor">
  <path d="M455 147a70 70 0 110-140 70 70 0 010 140zm0-125a56 56 0 100 111 56 56 0 000-111z"/>
  <path d="M455 121a44 44 0 110-87 44 44 0 010 87zm0-73a29 29 0 100 59 29 29 0 000-59z"/>
  <circle cx="454.9" cy="78.1" r="15.9"/>
  <path d="M452 80l-1-2c3-1 4-3 4-5 0-3-4-5-8-5l-79 7h-3l-1-1-6-1-30 2c-4 0-8 2-10 4l-2 2-8 6-17 8-7 3-8-3c-3-2-7-3-11-3l-65 11c-7 1-12 8-11 15l3 27 4 8c3 2 7 2 10 0l85-35 2 4 3 3c2 2 5 2 8 1l16-8 3-3h6c3 0 7-1 9-3 3-3 4-6 4-9v-2l22-3 81-12c4-1 7-3 7-6zm-134 33l-16 8c-2 1-3 0-4-1l-3-4 20-9 4 5-1 1zm19-10l-2 5a10 10 0 01-11 1l-1-2-1-2 5-2 10-1v1z"/>
  <circle cx="112.9" cy="47.3" r="46.6"/>
  <path d="M139 314H87c-16 0-29-13-29-28V146c0-16 13-29 29-29h52c16 0 29 13 29 29v140c0 15-13 28-29 28z"/>
  <path d="M29 524l-8-1c-15-4-24-20-20-35l58-212a29 29 0 1155 15L56 503c-3 13-15 21-27 21z"/>
  <path d="M193 524c-13 0-25-9-28-22l-54-211a29 29 0 0156-14l54 211a29 29 0 01-28 36zM127 183a29 29 0 01-5-57l169-29c15-3 30 7 33 23 3 15-8 30-23 33l-169 30h-5z"/>
</svg>