<svg xmlns="http://www.w3.org/2000/svg" viewBox="0 0 550 550" fill="currentColor">
  <path d="M90 423l-16 10c-1 0-3 0-8-3s-11-10-15-17l-33-55a10 10 0 10-17 9l33 56c6 10 14 18 22 23 6 4 12 6 17 6 4 0 7-1 11-3l16-10a10 10 0 10-10-16zM376 445c-5 0-9 4-9 10v19c0 2-10 9-29 9h-64a10 10 0 100 20h64c27 0 48-13 48-29v-19c0-5-4-10-10-10z"/>
  <path d="M375 279l-44-16 101-52c14-9 17-26 7-39l-28-33c-4-8-12-13-22-13H160a24 24 0 100 48h160l-107 52h-1-1a29 29 0 00-11 12l-1 1-27 55-106 48a29 29 0 0024 52l115-52c6-3 11-8 14-14l20-40 90 35-32 104a29 29 0 0055 17l40-129c4-15-3-30-17-36zM422 104a46 46 0 1092-1 46 46 0 00-92 1zM361 57c0-5-4-10-10-10H205a10 10 0 100 19h146c6 0 10-4 10-9zM146 81a10 10 0 100 19h146a10 10 0 100-19H146zM540 231h-91a10 10 0 100 19h91a10 10 0 100-19z"/>
  <path d="M503 265h-92a10 10 0 100 19h92a10 10 0 100-19z"/>
</svg>