<svg xmlns="http://www.w3.org/2000/svg" viewBox="0 0 485 485" fill="currentColor">
  <path d="M337 185a54 54 0 100-108 54 54 0 000 108z"/>
  <path d="M462 210c-1-6-5-12-10-16l-56-39a63 63 0 11-100-70L181 4a25 25 0 10-29 41l116 81-110 173-50-10c-10-2-20 3-25 11l-17-6a10 10 0 10-6 19l19 6c2 10 9 17 19 19l31 6-29 46c-6 8-5 19 0 27l-14 18a10 10 0 1015 12l15-19h5c8 0 16-4 21-11l39-62 62 12h5c8 0 16-4 21-12l96-161 50 35 20 124a25 25 0 0049-8l-22-135zM97 130c-5-3-10-2-13 3L3 261a10 10 0 0016 11l81-129c3-4 1-10-3-13zM87 62L6 190a10 10 0 1016 10l82-128a10 10 0 10-17-10z"/>
  <path d="M385 339c-4-3-10-1-13 3l-81 129a10 10 0 1016 10l81-129c3-4 1-10-3-13zM389 268c-5-3-11-2-14 3l-81 128a10 10 0 1017 11l81-129c2-4 1-10-3-13z"/>
</svg>