<svg xmlns="http://www.w3.org/2000/svg" viewBox="0 0 264 264" fill="currentColor">
  <path d="M64 20a22 22 0 1143 12 22 22 0 01-43-12zm184 30l-94-26v-9c0-9-7-15-15-15s-15 7-15 15v4c0 14-7 27-19 34l-5 3-13 5-11 2c-4 0-17 0-29-21l-5-9a15 15 0 00-26 14l2 4-8 100c0 5 3 9 8 10 5 0 9-4 9-8l7-79c12 14 27 18 38 19l4 46a23 23 0 0036 16 26 26 0 0132 17l4 12c1 3 2 5 4 6l-55 59c-3 4-3 9 0 12l1 1c3 3 9 3 12-1l138-148c6-7 6-17-1-23v-1l-73 78-1-5a55 55 0 00-53-38l-4-42v-1l5-2c14-9 25-23 30-38l92 26c5 1 9-2 11-6v-1c1-4-2-9-6-10z"/>
</svg>