<svg xmlns="http://www.w3.org/2000/svg" viewBox="-20 0 512 512" fill="currentColor">
  <path d="M473 52a52 52 0 11-104 0 52 52 0 01104 0zm0 0M446 484a55 55 0 01-62 3L210 381l9-3 122-54a40 40 0 005-70l-65-46a9 9 0 01-2-13l12-7-5-4c-7-5-12-12-14-21l-4-15a34 34 0 0127-41l18-4a9 9 0 0110 7 9 9 0 01-7 10l-17 4c-10 2-16 11-14 20l4 16c1 4 3 8 7 10l13 9 62 43c9 7 21 7 30 1l3 2 35 17a9 9 0 107-16l-35-16c4-11 0-23-9-30l-31-21a4 4 0 011-8l12-3c5-1 8-5 7-10l-5-24c-3-12-9-23-17-32a61 61 0 00-82-4l-23 18-34 28-3-2-102-49 4-8a9 9 0 00-15-8l-5 9-27-13a9 9 0 10-8 16l27 12-5 11a9 9 0 0016 7l5-10 99 47-18 15c-5 3-9 8-11 12a48 48 0 0017 61l82 53a9 9 0 01-1 15l-86 38c-13 6-20 21-15 34v1L65 292a9 9 0 10-9 15l319 194c25 16 58 14 82-4a9 9 0 10-11-13zm0 0"/>
  <path d="M78 234a9 9 0 005-16l-70-43a9 9 0 10-9 15l70 43 4 1zm0 0M65 190l69 43a9 9 0 1010-15l-70-43a9 9 0 00-9 15zm0 0"/>
</svg>