<svg xmlns="http://www.w3.org/2000/svg" viewBox="-968 768 365 365" fill="currentColor">
  <path d="M-747 880a22 22 0 1134-28 22 22 0 01-34 28zm19 169l4-14a52 52 0 00-21-58l16-50a22 22 0 00-22-29l-8-1c-23-2-46 8-60 25l-72-13c-5-1-9 2-10 7v1c-1 4 2 8 6 9l13 3c-7 2-13 7-17 13l-48-9c-3-1-6 1-7 5 0 3 2 6 5 6l43 8c-2 5 0 11 5 13a10 10 0 0013-5c3-7 9-11 16-14l-8 25a15 15 0 0014 20h5a13 13 0 0111 17l-4 13v5l-49 3c-4 0-6 3-6 6s3 6 6 5l134-8c6 0 11-5 11-12l-76 5 3-11a33 33 0 00-18-40l10-34 1-3 9 1c-3 8 0 16 8 20 4 2 9 1 12 0 3-2 6-4 8-8 4-11 14-18 24-21l-13 42a23 23 0 005 23l10 6h11c4 2 7 5 9 8 4 5 5 12 3 18l-6 18v7l-75 5c-5 0-8 4-8 8v1c1 5 5 8 9 8l203-12c9-1 16-9 15-18v-1l-114 7zm-109-140a13 13 0 10-16-20 13 13 0 0016 20z"/>
</svg>