<svg xmlns="http://www.w3.org/2000/svg" viewBox="0 0 1000 1000" fill="currentColor">
  <path d="M477 13a80 80 0 0033 155 80 80 0 10-33-155zM277 207a32 32 0 00-3 57c5 3 7 7 23 48l17 45-8 8c-13 12-16 26-9 40 6 12 15 17 30 17l13 1 30 80 31 79-7 37-7 45c0 10 4 18 12 27l6 6h-95c-89 0-95 0-100 4-12 7-16 25-8 36 9 14 3 14 141 14h124l8 21 8 23-13 17-14 20c-2 3 0 9 7 27l9 23 10 2c13 4 37 2 53-4 15-5 45-18 48-20 1-1-5-16-12-34l-13-32-8-3c-4-1-15-3-24-3l-15-2-7-16-6-18 141-1c131 0 142 0 148-4 9-4 14-11 15-21 1-9-4-20-12-25-5-4-11-4-106-4H583l7-6c7-8 11-18 11-28l-22-119-23-112v-90c-1-80-2-91-5-99-5-13-18-27-31-34l-11-5H397c-106-1-113-1-120 3zm155 63l-94 69-25-64-2-7h61c35 0 61 1 60 2zm-6 187l-7 36 27 69c14 38 26 68 27 67l11-54c6-34 10-50 11-46a12530 12530 0 0132 151l8 11 6 6h-32c-29 0-32 0-34-3L364 405c0-2 15-14 34-28l34-26 1 35c0 33 0 36-7 71z"/>
  <path d="M108 818c0 20 0 27 2 27l15 4c7 1 25 8 40 15 44 19 51 22 74 21 22 0 27-1 75-22 38-16 51-19 68-16a254 254 0 0153 20l-5-14c-6-16-6-21 1-34l5-11-15-5c-26-10-32-11-52-11-23 0-36 4-80 23l-41 16c-11 3-12 3-24-1-7-3-24-9-38-16-30-13-52-20-67-22l-11-1v27zM617 792c-10 2-25 7-25 8l9 25c9 22 9 22 15 22 27-2 34 0 76 19 41 18 47 19 69 19 23 1 30-2 74-21 15-7 33-14 40-15l15-4c2 0 2-7 2-27v-27l-10 1c-16 2-38 9-68 22-39 18-48 20-60 17-5-1-20-6-32-12-57-25-81-31-105-27zM108 921v26l12 4c7 1 29 10 49 18 37 16 54 21 69 21 14 0 37-7 70-21l41-17c21-6 37-4 79 15 64 29 81 29 138 4 40-18 52-22 66-22s22 3 63 21c31 13 53 20 67 20 15 0 32-5 69-21 20-8 42-17 49-18l12-4v-53h-5c-12 0-43 10-72 23l-43 17c-11 3-12 3-24-1l-38-15c-52-24-75-28-107-19-10 2-32 10-48 18l-42 17c-14 3-20 2-47-9-45-19-56-24-70-27-31-7-51-4-105 19-47 20-49 21-66 16-8-2-23-9-35-14-37-16-63-25-77-25h-5v27z"/>
</svg>