<svg xmlns="http://www.w3.org/2000/svg" viewBox="0 0 555 555" fill="currentColor">
  <circle cx="153.5" cy="195.4" r="44.6"/>
  <circle cx="434.5" cy="215.1" r="44.6"/>
  <path d="M196 336c8-6 19-9 29-10l7-36c2-10-5-20-15-22l-112-22c-10-2-17-12-15-22l11-69c2-11-4-19-15-19s-21 8-23 19l-18 98c-2 10 5 20 16 22l7 2c5 0 7 5 6 11l-7 39c14-3 28-1 40 7l49 32 16-12s12-48 15-48c3 1-2 38-2 38l11-8zM471 364l37-28 5-26c2-10-5-20-15-22l-112-22c-10-2-17-12-15-22l15-91c2-11-5-19-15-19h-1c-10 0-20 8-22 19l-22 120c-2 10 5 20 16 22l15 3-8 42 13-8c17-11 44-11 61 0l34 22s8-29 11-29c3 1-1 36-1 36l4 3z"/>
  <path d="M14 421c3 0 6-1 8-3l49-41c3-3 10-3 13-1l51 33c13 8 32 8 45-2l41-31c3-2 10-3 14 0l53 33c12 8 32 8 44 0l51-33c4-3 12-3 15 0l50 33c13 8 32 8 45-2l56-41a13 13 0 00-16-22l-56 42c-4 2-11 2-14 0l-50-33c-13-8-32-8-45 0l-50 33c-4 3-12 3-16 0l-53-33c-13-8-32-8-45 2l-41 31c-3 2-10 2-14 0l-50-33c-14-8-33-7-45 3L5 397a13 13 0 009 24z"/>
</svg>