<svg xmlns="http://www.w3.org/2000/svg" viewBox="0 0 554.673 554.673"><path fill="currentColor" d="M13.501 510.53c3.041 0 6.11-1.032 8.616-3.127l49.094-40.937c3.107-2.602 9.476-2.975 12.89-.774l50.71 32.885c13.11 8.521 32.398 7.822 44.848-1.568l40.937-30.829c3.414-2.592 10.595-2.897 14.219-.593l52.709 33.287c12.804 8.08 32.053 7.965 44.781-.277l50.7-32.904c3.825-2.468 11.522-2.43 15.31.076l49.505 32.637c13.024 8.616 32.34 8.109 44.887-1.167l56.504-41.769c5.986-4.428 7.239-12.871 2.821-18.848-4.418-5.996-12.861-7.258-18.848-2.821l-56.505 41.76c-3.385 2.505-10.471 2.716-14.009.363l-49.515-32.646c-12.737-8.415-32.025-8.511-44.819-.191l-50.71 32.904c-3.893 2.506-11.81 2.563-15.73.096l-52.7-33.287c-13.148-8.28-32.417-7.487-44.838 1.855l-40.927 30.829c-3.385 2.563-10.414 2.803-13.971.488l-50.7-32.876c-13.33-8.673-32.618-7.517-44.829 2.678L4.848 486.71c-5.719 4.763-6.483 13.254-1.731 18.973a13.57 13.57 0 0010.384 4.847zM188.104 297.898c19.794 0 35.907-16.122 35.907-35.973 0-19.794-16.113-35.802-35.907-35.802-19.747 0-35.869 16.008-35.869 35.802-.001 19.861 16.122 35.973 35.869 35.973zM434.022 56.8l-72.694 123.749-106.985 64.881c-5.317 2.936-9.763 7.373-12.862 12.804l-83.222 143.389c-5.584 9.601-2.333 22.022 7.325 27.616 9.61 5.757 21.975 2.438 27.626-7.162l65.016-96.533 119.426-82.658c5.432-2.983 9.878-7.43 12.814-12.804l87.123-148.276c6.895-11.991 2.764-27.339-9.228-34.348-12.087-6.886-27.454-2.697-34.339 9.342z"/></svg>