<svg xmlns="http://www.w3.org/2000/svg" viewBox="0 0 560 560" fill="currentColor">
  <path d="M547 259H404v-71a10 10 0 10-19 0v71H242c-8 0-14 6-14 13v35c0 8 6 14 14 14h37v160c0 6 5 10 10 10h32c6 0 10-4 10-10V321h216c7 0 13-6 13-14v-35c0-7-6-13-13-13z"/>
  <path d="M42 486l83-58c7-5 11-13 11-21l4-75 55 48v84a27 27 0 0053 0v-97c0-7-3-15-9-20l-70-59v-45l25-1 9-3 41-27 15 5 5 1a18 18 0 0014-28l17-11a18 18 0 003-28l2-6-2-7c2-4 7-7 7-7 10 1 20-6 23-16l2-9c3-12-4-24-16-28l-12-3c-12-3-24 4-28 16l-2 8c-3 10 2 21 10 26 0 0 4 6 3 10-2 1-4 2-4 4l-3 9-2 1-38 24-50-15-5-1h-68c-15 0-27 12-27 27v116l-4 92-73 50a27 27 0 0031 44zm127-294h11l20 7-12 7-19 1v-15z"/>
  <circle cx="128.8" cy="109.1" r="39.6"/>
</svg>