<svg xmlns="http://www.w3.org/2000/svg" viewBox="0 0 536 536" fill="currentColor">
  <path d="M448 352a19 19 0 1037-7l-21-123c0-4-2-7-5-10L355 100a19 19 0 00-28 26l56 61-47 16-45-87a19 19 0 00-17-33l-16-30a29 29 0 10-51 26l20 38-35 26-38-16c-3-1-6-2-8-1v-1l-1 1-7 1-69 18c-6 0-12 4-15 10L2 259a19 19 0 0034 17l39-78 15 72-34 124-36 64a29 29 0 1050 28l38-68 3-6 26-97 76 72 3 65a29 29 0 1057-2l-4-77c0-7-3-14-8-19l-84-80-22-105 33 14a19 19 0 0019-3l38-29 56 110v206a29 29 0 1058 0V280l73-18 16 90z"/>
  <circle cx="81.1" cy="80.4" r="45.1"/>
  <circle cx="491.1" cy="166.7" r="45.1"/>
</svg>