<svg xmlns="http://www.w3.org/2000/svg" viewBox="0 0 259 259" fill="currentColor">
  <path d="M242 41a32 32 0 00-49 27v28c-23-1-45-8-64-20l-11-8-7-2c-12-4-25 1-29 12l-28 69c-1 3-3 9-3 14 0 26-13 50-35 65l-7 5a15 15 0 0016 25l8-5c23-15 38-38 45-63 21 16 40 36 55 59l3 5a15 15 0 1025-16l-3-6c-17-25-38-48-62-66l11-27c17 14 37 24 58 31l5 2a15 15 0 0019-10c1-5 0-9-3-13l13-21h2a15 15 0 0015-17l24-13c10-5 17-15 17-27 0-11-6-22-15-28zm-122 64c19 11 40 18 62 20l-9 14c-20-6-39-17-55-31l2-3zm113-22l-25 14V68a17 17 0 0126-14c5 3 8 9 8 15s-4 11-9 14zM99 27a27 27 0 1155 0 27 27 0 01-55 0z"/>
</svg>