<svg xmlns="http://www.w3.org/2000/svg" xmlns:xlink="http://www.w3.org/1999/xlink" version="1.1" viewBox="0 0 100 100" xml:space="preserve"><path fill="currentColor" d="M15.588,29.646c2.439,0,3.623-0.745,4.887-1.54c1.209-0.765,2.352-1.486,4.698-1.486  c2.346,0,3.489,0.722,4.705,1.49c1.253,0.79,2.436,1.536,4.882,1.536c2.44,0,3.624-0.745,4.888-1.54  c1.209-0.765,2.352-1.486,4.698-1.486c2.344,0,3.486,0.721,4.701,1.487c1.199,0.757,2.439,1.539,4.886,1.539  c2.444,0,3.628-0.746,4.887-1.54c1.209-0.765,2.352-1.486,4.698-1.486v-3c-2.246,0-3.751,0.53-4.928,1.146l-11.094-2.02  c2.562-1.014,3.815-3.911,2.802-6.471c-1.012-2.561-3.91-3.815-6.469-2.803c-1.482,0.586-2.507,1.81-2.928,3.228l-3.095-4.854  c-0.155-0.243-0.354-0.456-0.589-0.626l-9.307-6.777c-0.544-0.396-1.234-0.535-1.89-0.381L13.437,7.02  c-1.242,0.292-2.014,1.536-1.722,2.778c0.292,1.243,1.538,2.014,2.779,1.722l11.553-2.715l8.097,5.895l0.148,0.233l-12.117,9.065  c-1.432,0.393-2.438,1.025-3.309,1.576c-1.099,0.691-1.704,1.072-3.278,1.072c-1.58,0-2.186-0.382-3.287-1.077  C10.925,24.701,9.213,23.62,6,23.62v3c2.346,0,3.489,0.722,4.702,1.487C11.956,28.899,13.141,29.646,15.588,29.646z"/><path fill="currentColor" d="M71.661,48.828l-0.405-0.23L60.04,42.222c0.541-0.305,1.113-0.606,1.693-0.891  c2.04-1.007,4.178-1.781,5.646-2.125c0.374-0.099,0.694-0.152,0.981-0.211c0.21-0.031,0.394-0.059,0.544-0.081  c0.562-0.058,0.883-0.091,0.883-0.091l0.029-0.003c0.133-0.015,0.265-0.033,0.397-0.057c0.211-0.038,0.415-0.09,0.615-0.15  l1.208,5.901c0.217,1.062,1.092,1.861,2.168,1.983l11.976,1.355c0.096,0.011,0.19,0.016,0.284,0.016  c1.255,0,2.337-0.942,2.481-2.219c0.155-1.372-0.831-2.61-2.203-2.766l-10.172-1.151l-1.729-8.45c1.191,0.285,2.488,0.15,3.639-0.5  c2.411-1.368,3.261-4.431,1.892-6.842c-1.365-2.411-4.428-3.259-6.84-1.892c-1.54,0.872-2.433,2.438-2.528,4.084  c-0.854-0.29-1.79-0.376-2.74-0.205c0,0-0.322,0.059-0.886,0.16c-0.403,0.085-0.95,0.195-1.465,0.33  c-0.481,0.135-1.031,0.282-1.589,0.475c-2.276,0.74-4.959,1.978-7.479,3.466c-1.266,0.747-2.489,1.541-3.656,2.416l-0.436,0.332  l-0.295,0.228l-0.08,0.078l-0.159,0.155c-0.194,0.193-0.388,0.385-0.578,0.573l-0.356,0.386l-0.271,0.344  c-0.695,0.901-1.22,1.928-1.523,2.976c-0.632,2.092-0.31,4.289,0.548,5.822c0.432,0.776,0.957,1.354,1.363,1.712  c0.422,0.359,0.669,0.519,0.669,0.519c0.033,0.023,0.071,0.036,0.104,0.059c0.466,0.458,1.026,0.832,1.686,1.059l12.313,4.243  L61.86,66.284c-0.327,0.983,0.128,2.078,1.091,2.526c1.036,0.482,2.267,0.033,2.749-1.003l7.132-15.312  C73.444,51.17,72.954,49.562,71.661,48.828z"/><path fill="currentColor" d="M95.972,59.046c-1.125-5.682-6.138-9.806-11.921-9.806c-0.792,0-1.591,0.078-2.374,0.233  c-3.188,0.631-5.939,2.465-7.748,5.164c-1.808,2.7-2.456,5.942-1.825,9.13c1.123,5.683,6.137,9.808,11.923,9.808  c0.791,0,1.59-0.079,2.372-0.233c3.188-0.631,5.939-2.465,7.747-5.165C95.954,65.477,96.603,62.233,95.972,59.046z M91.653,66.508  c-1.362,2.034-3.436,3.416-5.837,3.891c-0.591,0.117-1.193,0.177-1.79,0.177c-4.357,0-8.134-3.107-8.979-7.39  c-0.476-2.401,0.013-4.845,1.375-6.878c1.362-2.034,3.435-3.416,5.837-3.891c0.592-0.117,1.195-0.177,1.792-0.177  c4.354,0,8.131,3.107,8.978,7.388C93.504,62.029,93.016,64.473,91.653,66.508z"/><path fill="currentColor" d="M59.606,72.569h-9.817L45.755,64.7c-0.09-0.176-0.2-0.34-0.329-0.489L33.187,49.974  c-0.73-0.851-1.938-1.11-2.953-0.636l-10.705,4.997c-1.251,0.584-1.792,2.072-1.208,3.323c0.584,1.25,2.07,1.79,3.323,1.208  l8.987-4.195l3.707,4.312L24.082,69.142c-0.533,0.217-1.03,0.539-1.445,0.99c-0.193,0.211-0.357,0.438-0.497,0.675  c-0.4,0.378-0.732,0.838-0.956,1.379L17.37,81.43L5.561,91.603c-0.896,0.777-1.092,2.128-0.401,3.127  c0.74,1.071,2.209,1.34,3.28,0.6l13.592-9.391c0.271-0.188,0.518-0.443,0.698-0.746l0.217-0.365l3.454-5.806l5.857,5.376  l-7.792,7.249c-0.861,0.8-1.011,2.135-0.305,3.111c0.765,1.055,2.239,1.291,3.295,0.527l11.612-8.407  c0.086-0.062,0.172-0.131,0.252-0.203c1.253-1.128,1.354-3.058,0.228-4.31l-0.234-0.261l-7.137-7.929l9.209-6.995l0.056,0.064  l4.596,8.965c0.428,0.835,1.287,1.359,2.225,1.359h11.345c1.381,0,2.5-1.119,2.5-2.5S60.987,72.569,59.606,72.569z"/><path fill="currentColor" d="M44.235,61.41c1.672,2.226,4.831,2.671,7.054,1.001c2.222-1.673,2.672-4.832,0.999-7.056  c-1.672-2.223-4.829-2.671-7.053-0.997C43.011,56.027,42.563,59.189,44.235,61.41z"/></svg>