<svg xmlns="http://www.w3.org/2000/svg" viewBox="0 0 415 415" fill="currentColor">
  <path d="M352 177s-81-60-104-68c-23-7-56-3-76 2l-50 15-39-43a16 16 0 00-25 20l42 59c4 5 11 8 18 7h2l49-9 8 89-1 18-97 48c-11 5-17 19-12 30 5 12 19 18 31 13l116-47c5-2 9-6 12-10l7 15-62 58c-9 8-11 22-3 32s23 12 33 4l84-66c9-7 13-19 9-30l-1-2-26-65-7-77 70 40c9 5 21 3 27-6s4-21-5-27z"/>
  <circle cx="222" cy="50" r="50"/>
  <path d="M107 89a44 44 0 100-87 44 44 0 000 87zm0-8l-12-2v-3c7-7 17-7 24 0v3l-12 2zm0-70l12 2v3c-7 7-17 7-24 0v-3l12-2zM87 34c15-3 26-3 40 0 7 7 6 17 0 24-14 3-25 3-40 0-6-7-6-17 0-24z"/>
</svg>