<svg xmlns="http://www.w3.org/2000/svg" viewBox="0 0 555 555" fill="currentColor">
  <path d="M533 420l-56 42c-4 2-11 3-14 0l-50-32c-13-9-32-9-45-1l-50 33c-4 3-12 3-16 0l-53-33c-13-8-32-7-45 2l-41 31c-3 2-10 3-14 0l-50-33c-14-8-33-7-45 3L5 473a13 13 0 0017 21l49-41c3-3 10-3 13-1l51 33c13 8 32 8 45-2l41-30c3-3 10-3 14-1l52 33c13 8 33 8 45 0l51-33c4-2 12-2 15 0l50 33c13 8 32 8 45-1l56-42a13 13 0 00-16-22z"/>
  <path d="M248 408l52 33h2l1-1v-9l5 6 44-29 9-4-26-40c-4-7-13-14-21-17l-60-20c-6-2-14-7-19-11l-59-61c-4-4-6-12-5-17l21-80a50 50 0 0062-49 51 51 0 10-101 0l-37 137c-2 8 0 20 5 26l66 88c3 5 6 14 6 20v27c17-9 40-9 55 1z"/>
  <path d="M374 254c0-20-10-36-23-39-7-12-23-30-56-30-34 0-50 18-56 30-14 3-23 19-23 39 0 22 11 39 27 39h2a60 60 0 00100 0h2c15 0 27-17 27-39z"/>
</svg>