<svg xmlns="http://www.w3.org/2000/svg" viewBox="-36 2 497 497" fill="currentColor">
  <circle cx="213" cy="102.1" r="49.3"/>
  <path d="M309 412l-61 22 30 12c13 5 27-2 32-15 3-6 2-13-1-19zM98 326c-12-5-27 1-31 14-5 13 1 27 14 32l27 10 70-27-80-29zM359 340c-4-13-19-19-31-14l-198 74c-12 4-19 19-14 31 5 13 19 20 32 15l197-74c13-5 19-19 14-32zM386 250h-59l-43-85c-4-9-13-14-22-14h-98c-9 0-18 5-22 14l-43 85H40a25 25 0 100 49h74c10 0 18-5 23-13l27-55v93l49 18 49-18v-93l28 55c4 8 12 13 22 13h74a25 25 0 100-49z"/>
</svg>